<svg version="1" xmlns="http://www.w3.org/2000/svg" width="536" height="536" viewBox="0 0 402.000000 402.000000"><path d="M348 5.1c-5.8 8.3-22 23-30.5 27.6-7.9 4.3-9.5 3.9-5.2-1.4 2.3-2.8 6-11.3 5.3-12.1-.3-.2-1 .6-1.6 1.9C314.4 24 303 38 302.2 38c-.3 0-1.7-1.1-3.1-2.4-5.4-5.2-12.2-6.9-29.2-7.4-18.7-.5-21.8.2-39.4 9-11.4 5.6-12.3 5.9-17.5 5.4-3-.3-8.6-.9-12.3-1.2-5.6-.5-6.7-.9-6.5-2.3.2-1.1 1.6-1.7 4.1-1.9 2-.2 3.7-.8 3.7-1.3 0-2-5.7-3.1-14.5-2.6-8 .4-10.1 1-19.1 5.1L158.3 43h-26.4l.7-2.3c1.3-4 5.9-8.5 19.9-19.3 1.1-.8-.3-.3-3.1 1.1-6.2 3.3-13.8 9.4-19.4 15.7l-4.2 4.8H43v38.4c0 21.1-.3 39.1-.6 40-.3.8-1.3 1.3-2.2 1-1.4-.5-1.4-.3.1.9 1 .9 1.7 2.4 1.5 3.4-.3 1.6-1.4 1.8-11.7 1.6-12.3-.3-21.5-2.1-26.8-5.4L0 120.8v13.9l4 2.7c2.2 1.4 4 2.9 4 3.2 0 .4-1.8.4-4 0-7.3-1.1-4.3 4 4 6.9 2.4.8 6.9 3.4 9.9 5.8 3.1 2.3 8.9 5.3 13.1 6.8 11.5 4 11.4 3.7 11.8 38.6l.3 28.1-4.3 4.2c-4.9 4.7-8.2 6.7-15.3 9.2-2.7.9-7.5 2.6-10.5 3.7l-5.5 2 5.1.1c2.9 0 10.5-1.3 16.9-3 6.5-1.6 12.2-2.7 12.8-2.3 1.5.9 0 10.6-2 12-1.5 1.1-1.5 1.3-.1 1.3.9 0 1.9.7 2.2 1.6.3.9.6 24.5.6 52.5s.3 50.9.8 51c6.5.4 9.6 1.1 13.1 2.9 4.8 2.4 6.2 4.8 3.7 6.2-.9.5-1.4 1.3-1.1 1.8 1 1.6 14.3 10 17.7 11.2 1.8.6 5 2.5 7 4.1 2.1 1.7 6.1 3.8 9 4.7 5.5 1.9 9.8 6.3 9.8 10.1 0 1.8 4.2 1.9 131 1.9 128.3 0 139.8-.3 141.6-3.1.3-.5-.4-2.6-1.7-4.7-5.9-9.8-10.1-17.6-12.4-22.9-2.3-5.4-2.3-5.6-.4-3.3 1.2 1.4 5.3 7.9 9.2 14.5 9.3 15.8 9.1 15.5 10.6 14.6 1-.7.4-2.2-2.6-6.7-2.2-3.3-5.9-9.2-8.3-13.3-2.4-4-6.6-9.6-9.3-12.4-6.4-6.6-7.5-9.5-6.8-18.1.5-6.2.7-6.7 2-5.2.8 1 5.7 4.7 10.8 8.3 7.6 5.3 17.5 10.4 33.1 17 .7.3 1.2-.2 1.2-1.1 0-.9-.8-1.6-2-1.6-2.7 0-23.9-10.6-32.9-16.3-3.9-2.6-12.9-10.5-20.8-18.4-7.6-7.6-15.8-15.4-18.2-17.3-4.6-3.5-10.8-12.5-16.2-23.2-1.7-3.5-5.4-10-8.1-14.5-6.7-11.2-11.5-21.9-13.3-29.5-.8-3.6-2.2-8.4-3.1-10.9-3.5-9.8-7.4-24-7.4-27.1 0-1.8.9-6.7 2-10.8 1.1-4.1 2-10 2-13 0-5.8 5.6-23 7.5-23 .6 0 2.3 3.7 3.8 8.3 4.8 13.7 7.2 17.7 18.5 31 11.3 13.2 19.7 20.7 28.9 25.9 3 1.7 5.2 3.3 4.9 3.5-.6.7-18.5-5.3-25.5-8.4-7.9-3.5-13.7-7.7-21.8-15.7-4-3.9-7.3-6.7-7.3-6.3 0 .4 2.3 4.2 5.1 8.3 6 8.9 7.4 12.2 8.3 18.9.4 2.7 1.4 7.9 2.3 11.5 1.3 5.5 1.4 7.4.3 12.8-1.2 6-1.1 6.6 1.3 12 7.2 16 13.5 25.6 23.4 35.4 5.4 5.4 10.1 9.8 10.5 9.8.4 0 0-1.6-.8-3.5-1.3-3.1-1.3-3.6 0-4.1.8-.3 2-.2 2.7.2 1.8 1.1.7-2.8-3.5-12.1-3.1-7.1-6-16.5-5-16.5.2 0 2.2 2.8 4.5 6.2 8.1 12.1 14.9 19.6 22.6 25.2 4.3 3.1 9.6 7 11.7 8.6 4.2 3.3 6.6 3.8 6.6 1.6 0-.8.9-1.6 2-1.8 2-.3 2-.4-.3-2.8-4.5-4.9-11.7-16.3-11.7-18.6 0-1.7-1.2-3.1-4.2-5-2.4-1.4-8.6-6.8-13.8-12-5.2-5.1-12.4-11.3-16-13.7-4-2.6-6.9-5.4-7.4-7-2.7-7.6 7.7-5.7 21.1 3.8 5.1 3.6 9.5 6.5 9.8 6.5 1.6 0-1.8-2.9-16.1-13.6-8.5-6.3-15.4-11.9-15.4-12.5 0-1.5 1.8-1 8.8 2.5 3.7 1.8 8.1 3.7 9.8 4 1.8.4 6.5 2.8 10.5 5.3 7.6 4.6 36.6 19.5 40.7 20.7l2.2.7v-48.7l-6.4-4.2c-3.6-2.3-9.4-7.4-12.9-11.3-6.7-7.3-18.2-26.1-17.4-28.4.4-.9 4.3-1.4 14.9-1.7 16.6-.5 21.8-2.1 21.8-6.8 0-2.4-.5-2.7-6.2-3.9-6.8-1.4-6.6-1.9 2-4.1 4-1 4.2-1.2 4.2-4.9v-3.8l-5.2-.7c-7.2-1-12.9-2.7-12.5-3.9.2-.6 4.1-2.4 8.7-4.2 4.6-1.8 8.6-3.8 8.8-4.5.3-.9-.2-1.1-1.4-.8-1.1.3-7.9 0-15.1-.6l-13.3-1.1 10.8-4.4c5.9-2.4 12.6-5.1 15-6 2.9-1.1 4.2-2.2 4.2-3.5 0-1.5-.5-1.7-3.2-1.1-7.8 1.6-23.3 1.5-31.3-.2l-8-1.8-.3-36.3-.2-36.3 3.5-6.3c1.9-3.5 3.5-6.5 3.5-6.8 0-1.2-2.9-1.6-6.3-.9-5.7 1.3-6 0-1.6-6.2 3.6-5 6.8-11.8 8.6-18.2.4-1.2-1.4.1-4.3 3.2-5 5.3-8.4 7-6.8 3.5.4-.9.9-3.4 1.2-5.5 1.1-9.9-3.1-11.7-8.8-3.6zm7 2.9c-.7 1.7-1.4 2.9-1.6 2.7-.2-.2.1-1.8.7-3.6s1.4-3 1.7-2.7c.2.3-.1 1.9-.8 3.6zm-64.8 26.1c2.1.5 5 2.1 6.5 3.4 2.8 2.5 2.8 2.5.8 4-1.6 1.3-4.8 1.5-18.2 1.3-10.3-.2-16.2-.7-16-1.3.2-.5 3.3-2.7 6.8-4.7 6.9-4 12.8-4.8 20.1-2.7zm35.8 8.6c0 1.1-5.3 6.3-6.4 6.3-.5 0-1.7.7-2.7 1.6-1 .9-2.5 1.4-3.4 1.2-1-.2.5-1.9 4.7-5 6.3-4.6 7.8-5.4 7.8-4.1zm-118.3 2.6c4 2.1 10.3 11.2 10.3 14.7 0 4.5 2 6 8.5 6.7 3.8.3 6.8 1.2 8 2.4 3.1 2.7 8.2 3.5 10.3 1.6 3.4-3.1 23.2-10.2 23.2-8.3 0 .3-2.1 1.2-4.7 1.9-5.4 1.6-6.9 3.7-2.6 3.7l2.8.1-3 1.6c-1.6.9-5.4 3.6-8.3 6.1-4 3.4-6.1 4.5-8.5 4.5-1.8-.1-6.4-.2-10.3-.3-3.9-.2-8 .2-9.2.9-3.5 1.9-2.8 5.5 1.8 9.1 3.3 2.6 3.8 3.5 3 5-.6 1.1-2.6 2.2-4.8 2.6-6 1.1-7.1 2-4 3.4 3.4 1.6 9.9.5 9.2-1.4-1-2.6 1.1-2.4 10.8.9 10.1 3.4 13.9 5.5 20.1 11.4 4.9 4.5 6.3 7.3 7.2 13.8.6 4.7.3 6-2.9 12.7-4.8 10-17.4 21.7-15 13.8.5-1.5.8-7.7.8-13.7-.2-12.7-2.1-19.7-8.1-28.4-4.7-6.8-7.6-8.8-10.6-7.3-1.2.6-4.9 1.8-8.2 2.7-3.3.9-8.5 2.8-11.5 4.2-5.5 2.7-16 9.1-16 9.7 0 2.6 10.3 20 13.4 22.6 1.1.9 2.2.7 4.7-.6 4.7-2.4 8.2-3.3 18.4-4.9 12.4-2 13.1-1.8 4.7 1-9.3 3.2-21.1 9.1-21.8 11-.3.8.3 3 1.5 4.8 2.4 3.9 2.7 6.3.9 7-.7.2 0 .8 1.5 1.2 2.1.6 4.7 0 9.6-2 8-3.2 11.7-3.1 11.4.3-.3 2.9.9 2.8 6.8-.6 4-2.1 5.1-2.4 5.8-1.4.6 1 1.1.6 1.9-1.6 1.5-4.4 8.4-8.1 16.4-8.9 4.1-.3 6.8-.2 7.2.5.3.6.9 5.7 1.2 11.4.6 9.3.4 10.9-1.5 15.2-1.2 2.8-2.1 6.9-2.1 9.8 0 2.7-.7 6.2-1.5 7.7-.8 1.6-1.1 3.1-.8 3.5.3.3.5 3.3.4 6.7-.2 7.2-3.1 17.1-7.3 24.9l-3 5.5 3.4-3.8c1.9-2.1 4.2-3.9 5.3-4.1 1.2-.2 2.3-1.8 3.2-5 .8-2.6 1.8-4.4 2.3-4.1.5.3 1.9 3.8 3.1 7.7 1.8 6 2.1 8.6 1.6 16.7-1 16.5-6.3 28.2-15.4 34.2-3.4 2.3-5.7 2.5-4.9.4 1-2.6-.8-1.6-2.6 1.5-1.8 3.2-1 4.5 2.2 3.5 2.5-.8 2.6.6.2 3.5l-1.8 2.2-12-3.6c-6.5-2.1-12.5-3.9-13.1-4.1-1.9-.6-.5-3.2 2-3.9 3.4-.9 7.5-4.8 8.2-7.7.6-2.3.2-2.8-2.5-3.8-2.8-.9-3.1-1.4-2.6-3.8.3-1.6.8-4.6 1.2-6.8.4-2.2 1.9-6.8 3.5-10.3 3.2-7.2 1.7-8.7-2.1-2-1.3 2.4-5.4 8.8-9.2 14.2-3.7 5.5-6.6 10.1-6.4 10.4.3.2 1.9-.6 3.6-1.8 1.7-1.2 3.4-2 3.7-1.7.6.7-1.5 10.3-2.9 12.9-.6 1.2-2 1.8-4.4 1.8-4.1 0-5.2 1.9-3.4 5.8.7 1.5 1.5 6.2 1.8 10.6.4 6.4.8 8 2.3 8.3 3.1.8 2.9 6.2-.5 13.3-2.6 5.5-4.4 7.5-12.1 13.7-10.8 8.7-19.5 14.3-22.4 14.3-1.2 0-12.8-5.4-25.9-11.9-28.8-14.5-32-17.2-36.3-30.3-2.3-6.8-2.5-8.5-1.4-9.3 1.1-.7.6-1.6-2.1-4-2.7-2.2-3.6-3.9-3.7-6.4-.2-3.3 0-3.5 5-5 3-.9 6.9-3.2 9.3-5.4 3.5-3.1 4.1-4.2 3.6-6.5-.3-1.5-1.1-5.5-1.8-8.9-1.2-5.8-1.5-6.4-4.5-7.4-2.1-.7-3.5-1.9-3.9-3.4-.6-2.3-4.1-4.5-7.3-4.5-1 0-3.5.7-5.5 1.5-3.6 1.5-3.6 1.5-4.7-1.2-1.7-4.6-.8-7.5 2.8-8.7 4.3-1.5 4.9-2.3 3.1-4.3-.8-1-2.9-5.1-4.8-9.2-2.6-5.9-3.1-7.9-2.4-10 1.7-4.9 3.9-3.7 7.7 4.2 1.9 4.1 5.7 9.9 8.5 13 2.8 3.1 5.8 6.8 6.8 8.2 2.5 3.8 2.7 2.4.4-3-1.1-2.6-1.8-5-1.5-5.3.3-.3 3.1 2 6.2 5.2 9.1 9.3 17.4 14 12.5 6.9-2.3-3.2-3.7-7.3-2.5-7.3.4 0 3.1 1.4 5.8 3 7.2 4.3 7.6 3.7.8-1.3-3.2-2.4-7.6-6.4-9.7-8.8-3.6-4.3-3.7-4.3-3-1.4.4 1.6 1.7 5.1 3 7.7 1.3 2.6 2.4 5.3 2.4 6 0 2.3-7.8-6.4-14.6-16.4-8.7-12.6-10.5-15-11-14.5-.2.2.5 3.2 1.6 6.7 2.4 7.4 2.5 8.6.6 7.1-4.3-3.6-10.1-25.5-11.3-42.6-.7-10.1-.8-10.5-1.4-5.5-1.6 14.2-5.9 35.5-6.9 34.3-.4-.4-1.5-3.2-2.5-6.1-.9-2.8-1.9-5.2-2.2-5.2-1.6 0 4.8 17.7 7.9 21.9 2 2.7 1.9 3.4-.5 2.5-1.8-.7-9.5-11.9-12.8-18.7l-2.4-4.8-1.2 9.8c-1.1 8.4-1.1 11.4.3 21.2 1.1 7.8 1.3 11.6.5 12.4-.7.7-1.5-.3-2.7-3.2-.9-2.3-1.8-4-2.1-3.8-.7.8 8.1 22.2 15.1 36.9 6.2 12.8 6.9 13.9 12.6 18.3 3.3 2.5 6 5 6 5.4 0 .4-.9 1.6-1.9 2.5-1.7 1.6-2.5 1.6-5.8.6-5.8-1.9-13.9-6.8-16.3-9.8l-2.1-2.7.6 3c.3 1.6 2.8 7.7 5.5 13.4 2.7 5.8 4.7 10.7 4.5 11-.3.2-1.4-.4-2.5-1.4-2.4-2.2-2.6-.8-.5 4.2 1.6 3.9 2 7.7.6 6.9-.4-.3-1.4-2.7-2-5.3-.7-2.7-1.7-5.6-2.3-6.7-.7-1.3-.6-2.1.1-2.5.7-.5-.4-3-3.2-7.2-5.4-8-12.7-21.2-12.7-22.9 0-.9 1-1 3.5-.6 5.6 1.1 3.9-2.1-2.9-5.4-1.6-.8-4.3-3.4-6-5.8-2.6-3.7-3.5-4.3-5.8-3.8-4.8 1-5.3-.9-5.4-21.3-.1-10.2-.2-19.2-.3-19.9-.1-.9-1.1-.5-3.2 1.2-5.7 4.8-6.5 2.9-1.8-4 2.3-3.5 3.5-4.3 5-3.9 2.4.8 2.4-.1-.1-7.2-4.4-13.1-6-22-6-33.1 0-9.9.3-12.1 3.4-20.9 3.2-9.5 5.2-14.3 6.1-14.3.2 0-.1 1.7-.7 3.7-.6 2.2-1.1 14.2-1.2 28.3-.1 26.6 1.5 44.7 4.1 45.7.7.3 1.6.4 1.8.1.3-.2 0-7.1-.6-15.3-1.5-22-.4-28.5 7.7-44.6 3.5-6.9 7.3-13.4 8.5-14.5l2.1-1.9-.7 3.5c-1.2 5.5 1.8 2.2 4.5-5.1 3.8-10 9.7-16.7 15.2-17.3 1.3-.2 3.3-.6 4.6-1 3.7-1.2 2.8 3.1-1.7 8-6 6.4-11 17.2-13.1 28.3-1 5.2-1.7 9.7-1.5 9.9.2.3 1.8-2.5 3.4-6.1 1.7-3.7 5.7-10.6 9.1-15.6 6.7-9.9 8-12.8 8-17.4 0-6.3 7.7-18.8 13.4-21.9 1.1-.7 3.9-1.4 6.1-1.8 3.2-.4 3.9-.9 3.7-2.4-.7-3.9 7-8.4 18.4-10.6 5.8-1.1 6.4-1.1 18.8 2.9 12 3.7 21.9 8.8 28.2 14.3 2.5 2.2 3.4 2.3 3.4.4 0-3-14.2-13.5-25.8-19.2-4.3-2.1-5.6-2.3-6.8-1.4-1.1 1-1.8 1-3.2-.4-1-.9-2.3-1.6-2.8-1.6s-2.2-1-3.8-2.3l-2.9-2.3 4.7-1.8c7.1-2.7 15.1-.5 22.9 6.4 3.1 2.7 8.5 5.5 9.3 4.8.1-.2-2.3-3.1-5.4-6.4-4.9-5.2-6.7-6.4-12.7-8.5l-7-2.3 4-.7c2.2-.5 6.5-.8 9.6-.8 5.1-.1 5.7.1 6.3 2.2.3 1.5 2 3 4.5 4.1 2.1 1 4.4 2.9 5 4.2.6 1.3 1.5 2.4 2.1 2.4.6 0 1.7 1.8 2.6 4 .9 2.2 2.2 4 3 4 2.3 0 1.6-4.9-1.1-7.4-1.7-1.6-2.5-3.4-2.5-5.7 0-1.9-1.1-5.7-2.4-8.5-2.3-4.9-2.6-5.2-7.1-5.8-9.8-1.5-19.3 1.2-35.2 10.2-7.7 4.3-9.7 5-16 5.4l-7.1.5.9-2.6c.6-1.4 3.1-4.8 5.7-7.6s5.7-6.3 6.9-7.7c3.6-4.4 9.8-7.9 20.1-11.5 8.5-2.9 10.7-3.3 17.7-3 5 .2 9.2 1 11.2 2zm86 15.3c.2 2-2.4 4-18.1 13.6-7.7 4.6-11.6 5.9-11.6 3.7 0-.5.5-3 1.1-5.5 1.2-4.7 1.4-4.8 11.9-6.9 1.9-.4 4.8-1.8 6.5-3.1 3.4-2.6 7.5-4.4 9-4 .6.1 1.1 1.1 1.2 2.2zM141 63c0 .5-.5 1-1.1 1-.5 0-.7-.5-.4-1 .3-.6.8-1 1.1-1 .2 0 .4.4.4 1zm-12.2 3.8c1.7 1.6 3.5 4.8 4.2 7.3.7 2.4 1.8 6.1 2.6 8.1.7 2 1 3.9.6 4.2-1.4.8-11.6-1.4-13.1-2.8-1.8-1.9-4.9-14-4.3-17.2.7-3.5 6-3.3 10 .4zm-17.1.4c.7 1.1 7.2 16.9 7.3 17.5 0 .2-2.1.3-4.7.3-5.4-.1-14.4-3.4-20.6-7.7-4-2.8-8-8-7.2-9.4.3-.3 3.7-.7 7.6-.7 3.9-.1 7.4-.3 7.7-.6 1.1-1.1 9.1-.6 9.9.6zm-31.4 2.6c1 .9 3.1 3.7 4.5 6.2s5.2 8.4 8.4 13.2c6.8 10.2 7 9.8-6.3 12.2-4.6.8-10.4 2.2-12.8 3-5.9 2.2-16.1 2.1-20.7-.2l-3.7-1.7.6-14.9c.4-13.1.7-15.1 2.5-16.8 3.9-3.9 23.5-4.6 27.5-1zm271.9 2.9c.1 2.7.4 8.8.6 13.8.2 4.9.4 13.3.5 18.5l.2 9.5-3.5-.3c-5.1-.4-12.2-4.2-14.7-8-3.6-5.5-1.8-8.3 10.2-14.8 1.1-.6 2-1.7 2-2.5 0-1.5-1.9-1.6-7.4-.4l-3.5.8 2.4-3.9c1.2-2.1 3.8-5.4 5.6-7.2 2.2-2.2 3.4-4.3 3.4-6.1 0-3.1.7-4.1 2.7-4.1.9 0 1.4 1.6 1.5 4.7zM97.4 83c4.2 3.7 13.4 6.4 19.3 5.6 4.1-.5 4.3-.5 7.7 4.6 5.4 8.1 2.3 12.5-5.2 7.5-2.1-1.3-6.3-3.6-9.4-5.1C104 92.8 93 83.4 93 81.2c0-1.8.6-1.5 4.4 1.8zm164.3-1.4c.2.7-1.2 2.2-3.2 3.4-1.9 1.2-4.2 3.5-5 5.1-1.8 3.4-5.7 3.9-11 1.3-5.9-2.8-5.2-6.6 1.5-8 1.4-.3 4.3-1.2 6.5-1.9 4.6-1.6 10.7-1.5 11.2.1zm-6.5 19.7c2.4.8 9.1 3.4 14.9 5.8 9 3.8 11.2 5.3 16.7 10.9 3.5 3.6 7.4 8.1 8.7 10 5.3 8.1 14.2 15.9 16.6 14.4 1.4-.9 5.7 3.3 8.1 8 1.1 2.1 4.5 7.1 7.7 11 9.8 12.4 10.6 14.1 10.7 22.8 0 5-.3 7.8-1 7.8-.6 0-3.6-2.4-6.7-5.3-3.9-3.7-5.9-6.5-6.9-9.7-.7-2.5-2.7-6.3-4.4-8.5-1.7-2.2-4.2-6-5.6-8.5-3.9-7.2-13.2-20.7-12.5-18.4.3 1.2 1.2 5 1.9 8.5.8 3.5 2.3 8.6 3.5 11.2 1.2 2.9 2.1 7.2 2.2 10.5l.1 5.7 1.2-3.7c.6-2 1.4-3.9 1.8-4.3.3-.4 2.5 2.2 4.9 5.7 2.4 3.5 7.9 9.8 12.3 14.1 18.6 18.1 30.5 30.1 30.1 30.5-.2.2-3.7-.6-7.7-1.8-21.7-6.6-41.4-21.9-49.3-38.5-1.9-4-3.5-7.8-3.5-8.6 0-.8-.8-3.7-1.9-6.4-1-2.8-2.1-6.9-2.5-9.3-.6-3.8-.4-4.2 1.4-4.2 1.3 0 2.8 1.2 3.8 3 3.2 5.6 4.4 3 1.6-3.6-3.1-7.4-20.6-26.6-30.4-33.2-3-2-7.5-5.4-10-7.6-2.5-2.1-6.4-4.8-8.7-5.9-7.1-3.4-5.3-4.8 2.9-2.4zm-134.9 1.3c2.8.9 2 2-3.5 5.5-13.4 8.1-27.6 22.6-33.2 33.6-3 6.1-5 7.8-4 3.6 1.1-4.7 5.2-13.3 9.3-19.3 2.1-3.1 4.8-7.5 6-9.8 1.1-2.2 4.2-5.8 6.7-7.9 2.6-2.1 5.4-4.6 6.3-5.5 1.5-1.7 7-1.7 12.4-.2zm-50.1 6.5c6.5 0 12 .3 12.2.8.3.5-.9 2.4-2.7 4.4-3 3.3-10.2 6.7-14.3 6.7-.9 0-2.2.7-3.1 1.5-1.1 1.2-3.1 1.5-7.2 1.3l-5.6-.3-.3-6.1c-.2-3.3.2-7.3.7-8.7L51 106l3.7 1.6c2.8 1.1 6.9 1.6 15.5 1.5zm157.4 5.8c3 3.7 7.6 13.1 6.5 13.1-1.9 0-11.2-15.3-11-18.2 0-.8.5-.5 1.2.6.7 1 2.2 3 3.3 4.5zM66 134.9c-1 2-4.7 3.7-5.7 2.7-.4-.4 5.4-4.6 6.5-4.6.1 0-.2.9-.8 1.9zm289-1c0 1.2-4.1 2.1-6.8 1.4-3.8-.9-2.4-2.3 2.3-2.3 2.5 0 4.5.4 4.5.9zm-276 2.2c-.7 1.1-1.4 1.8-1.7 1.5-.8-.8.5-3.6 1.7-3.6.7 0 .7.6 0 2.1zm167 11.6c0 .7-.4 1.3-1 1.3-1.1 0-4-5.3-4-7.2.1-1.6 5 4.3 5 5.9zM53.9 177.1c1.7.6 3.1 1.4 3.1 1.7 0 1.4-6.3 17.2-6.9 17.2-.8 0-1.3-17.9-.5-19.1.7-1.1.5-1.1 4.3.2zm7.5 30c-2.7 3-3.4 2.3-3.4-3.4 0-5.6.6-7.1 3-7.9 2.3-.7 2.7 8.8.4 11.3zm40.4 1.6c3.1 4.9 3.9 6.9 3.1 7.9-.5.7-1 4-1.1 7.3 0 3.6-.6 6.5-1.4 7.1-1.8 1.6-2.1.6-3.9-11.1-2.4-16.4-2.6-17.9-1.8-17.8.5 0 2.7 3 5.1 6.6zm14.1 13.7c1 1.1.8 1.6-.8 2.1-2.9.9-4.5-.3-3-2.1s2.3-1.8 3.8 0zm19.5 36.2c4 3.7 4.6 4.7 3.6 5.9-2 2.4-3.6 1.8-7.9-3.3-3.2-3.7-4-4.3-4.1-2.7 0 1.1 1.2 3.8 2.6 5.9l2.7 3.9-2.9-.7c-3.5-.9-9.8-5.7-10.2-7.9-.5-2.7 3.4-5.7 7.6-5.7 3 .1 4.6.9 8.6 4.6zm158.7 14.7c3.2 8.9 6.8 18 7.9 20.2 1.1 2.2 2 4.6 2 5.4 0 2.1-2.8-.6-4.9-4.8-1-2-3.7-7.1-5.9-11.3-5.5-10.4-8.6-20.7-7.7-25.5.9-4.8 1.1-4.5 8.6 16zM59 267.5c1.7.9 3 2 3 2.6 0 .6 1.1 2.4 2.5 4.1 2.8 3.3 3.6 8 1 5.8-1.2-1-1.6-.9-2.1.4-.7 1.8-6.9 2.3-7.9.5-.9-1.4-1.8-11.8-1.1-13.5.7-1.8 1-1.7 4.6.1zm216.5 11.4c-1 6.9-3 9.5-6.8 8.7-1.7-.3-3.2-.8-3.4-1-.6-.6 3.8-7.8 6.5-10.8 3.3-3.6 4.5-2.6 3.7 3.1zM68 295.2c1.1.9 3.4 4.6 5 8.2 1.7 3.7 5.3 10.6 8.2 15.4 18.7 31.7 21.6 34.6 15.4 15-3.9-12.1-6.3-24.5-5.3-27.2.7-1.9 5-2.1 6.5-.3 1.7 2 7.3 21.9 7.4 26.4 0 2.7-.7 5.4-2.2 7.7-1.6 2.6-2 4.4-1.5 6.6.6 2.5.3 3-1.7 3.4-5.6 1.2-18.3 2.6-22.8 2.6-4.8 0-5-.1-7.1-4.1-2.1-4.3-3.5-4.2-4.1.1-.3 2.3-.7 2.5-4.3 2.2-2.1-.2-5.5-.9-7.5-1.6-3.1-1-3.5-1.5-3.2-4.1.4-4.1 1.2-28.4 1.5-42.2.2-12.4.8-13.7 6.9-15.8 3.2-1.1 3.4-1 5 2.4.9 2 2.6 4.3 3.8 5.3zm49.5 20.9c2.8 2.8 6.5 5.7 8.3 6.4 3.6 1.6 4.1 3 1.4 4.4-2.1 1.1-6.1-.9-12-6-3.3-2.8-4.2-4.3-4.2-6.7 0-1.8.4-3.2.8-3.2s3 2.3 5.7 5.1zm-2.5 17.2c0 4.5-3.4 13.6-4.7 12.4-.3-.3.1-5.6.8-11.9 1.2-10.6 1.3-11.1 2.5-8.3.7 1.6 1.3 5.2 1.4 7.8zm107 1.1c0 1.3.9 3.5 2 4.9 1.7 2.2 1.8 2.6.4 3.1-2.5 1-3 .7-4.2-1.9-1.3-2.8-1.6-7.8-.6-8.8 1.1-1.1 2.4.3 2.4 2.7zm3 31c0 2.1-5.8 6.6-8.3 6.5-1.2 0-3-.4-4-.8-1.7-.6-1.6-.8.5-2.7 4.8-4.3 11.8-6.1 11.8-3zm-12.3 8.2c2.4.9 4.3 2 4.3 2.5s-.6.7-1.2.5c-.7-.2-3.4-1-6-1.6-2.7-.7-4.8-1.7-4.8-2.1 0-1.4 3-1.1 7.7.7zm-3.8 4.3c3.5 1.8 7.2 5.1 5.7 5.1-.4 0-2.3-.7-4.3-1.5-1.9-.8-4.8-1.5-6.4-1.5-3.1 0-3.6-.9-1.7-2.8 1.6-1.6 2.2-1.5 6.7.7zm-13.9 4.2c-.7 1.1-1.4 1.8-1.7 1.5-.3-.3 0-1.2.7-2.1 1.8-2.1 2.3-1.9 1 .6zm35 14.4c1.3 1.4 1.9 2.5 1.3 2.5-.6 0-1.8-1.1-2.7-2.5-.9-1.4-1.5-2.5-1.3-2.5.2 0 1.4 1.1 2.7 2.5z"/><path d="M210.1 84.2c0 .7.9 3.1 1.9 5.3 1.5 3.2 1.9 3.5 1.9 1.7.1-1.3-.6-3.6-1.4-5.2-1.6-3.2-2.5-3.8-2.4-1.8zM151.3 94.7c-2.4.9-1.3 2.3 1.6 2.3 3.4 0 4.9-1.5 2.5-2.4-1.8-.7-2.3-.7-4.1.1zM164.5 102c-3.8 1-7.3 1.9-7.7 1.9-1.8.2-.5 1.8 3.2 3.8 7.2 4.2 16.3 2.6 20.6-3.6 1.8-2.5 6.1-2.7 14.7-.7 7.7 1.8 6 .2-1.9-1.8-8.2-2.1-20.2-1.9-28.9.4zM214 101c0 .5.4 1 .9 1 .6 0 1.3-.5 1.6-1 .3-.6-.1-1-.9-1-.9 0-1.6.4-1.6 1zM140.6 105.6c-2.4 2.4-2.9 5.7-2.4 16.7.3 7.2 1.1 11.5 2.5 14.7l1.9 4.5 1.2-4.8c.7-2.6 1.8-4.7 2.5-4.7.8 0 2.8 2 4.6 4.5 5.3 7.4 5.1 6-1.1-6.1-6.2-12.3-7.3-17.8-4.2-22.2.8-1.2 1.2-2.7.9-3.2-.9-1.5-4.2-1.2-5.9.6zM121.1 137.8c-.1 2.4 3.9 12.6 4.6 11.8.3-.2-.3-1.8-1.1-3.5-.9-1.7-2-4.7-2.5-6.8-.6-2.5-.9-3-1-1.5zM190 147.5c5.6 5.9 10.8 9.3 17.2 11.2 6.4 1.9 7.2 1 1.6-1.8-2.3-1.2-6.1-3.6-8.3-5.4-2.2-1.8-6.5-4.5-9.5-6l-5.5-2.7 4.5 4.7z"/><path d="M173 144.6c0 .5.5 3.8 1 7.3.8 4.9.7 9.7-.6 21-.9 8-1.8 16.4-1.9 18.6-.3 3.6-.8 4.3-5.7 7.5-3 1.9-7 5.2-8.8 7.3l-3.3 3.8 2.8-.3c2.8-.3 2.9-.1 4.6 6.7.9 3.8 3.1 9.5 4.8 12.5 1.8 3 3 4.4 2.6 3-2.8-11.5-2.9-12.8-1.2-16.7 1-2.1 2.1-5.8 2.5-8.3.7-4.2 1-4.7 6.2-7.2 3-1.5 6.3-2.7 7.3-2.7 2-.1 3.3 2.8 3.8 8.4l.4 4-5.7.3c-5.8.3-6.7.9-4.7 2.9.8.8.2 2.3-2.1 5.4-3.8 5.3-2.2 6.5 2.6 1.8l3.4-3.3-2 5.8c-1.1 3.1-1.8 6.1-1.5 6.6.3.5 2.3-.1 4.3-1.4 2-1.3 5.3-2.7 7.2-3.1 1.9-.4 5.4-1.8 7.7-3.2 5.4-3.1 8.8-2.8 8.8.8 0 1.9.4 2.5 1.6 2.2.8-.3 3.1.8 4.9 2.3 3.1 2.7 3.3 2.7 4.6.9.8-1 1.4-3.4 1.4-5.2 0-3.7 3.5-6.6 5.1-4.2 1.4 2.2 1.1 3.4-2.1 7.7-1.7 2.5-5.1 5.2-8 6.7l-5 2.6-2.5-2.7c-1.3-1.4-2.5-3.5-2.7-4.7-.3-2.4-3.8-3.7-3.8-1.5 0 .7 1.1 3 2.5 5l2.5 3.7-3.8 2c-2.1 1.1-4.5 2.7-5.2 3.6-1.3 1.5-1 1.7 2.4 1.4 4.4-.4 3.8-1.1 9.4 11.2 2.2 4.7 4.4 8.9 5.1 9.3 1.5 1 1.4.1-.9-7.2-1.1-3.5-2-8.3-2-10.7 0-5 .2-5.2 10-6 3.7-.3 7.2-1.2 8.2-2.1 1.9-1.8 3.8-1.1 3.9 1.4.1.9.8-.3 1.6-2.8 1.1-3.4 1.3-7.2.8-15.8l-.7-11.2h2.5c1.3 0 3.8.5 5.6 1.1 1.8.6 3.4.9 3.6.7.2-.2-2-3.2-5-6.6-4.9-5.6-7.3-9.7-6.3-10.8.2-.2 2 .1 3.9.6 1.8.6 5.4.9 7.9.9 4.5-.1 4.5-.1 1-.8-3.8-.8-8.4-3-7.7-3.7.2-.3 2.9-.2 6 .2 5.5.7 5.5.7 6.7 5 1.2 4.4.9 14.1-.6 19.4-.7 2.2-.6 2.4.9 1.1 2.5-2 5.8-7.7 6.5-11.4.8-4 .9-24.4.1-25.2-.4-.3-1.6-.7-2.7-1-1.1-.2-4.5-1.9-7.4-3.7-8.4-5.4-8.1-5.3-6.8-3.2.7 1.1 4.1 4.1 7.6 6.8s6.4 5.5 6.4 6.2v2.1c0 .5-3.9 1.1-8.7 1.4-7.1.5-9.7.2-13.6-1.3-6.7-2.6-8.9-2.4-8.1.6.4 1.5-.3 3.5-1.9 6l-2.5 3.6-3.4-3.3c-6.6-6.6-16.4-18.9-20.9-26.2-6-10-6.9-10.8-6.9-6.5.1 1.9.5 5.5 1.1 8 .5 2.5 1.6 9.4 2.5 15.5.8 6 2.6 13.6 3.9 16.8 1.9 4.8 2.1 5.9.9 6.4-6.4 2.4-16.7-21.5-21.4-49.6-1.1-6.9-2.3-12.7-2.5-13-.3-.2-.5 0-.5.5zm28.4 35.2c3.1 3.3 2.9 4.4-1.1 5.6-3 .9-5.2-2.6-6-9.5l-.6-5.4 2.3 3c1.3 1.6 3.7 4.5 5.4 6.3zM183 190.6c0 .6-7.1 3.4-8.6 3.4-1 0-.9-1.3.7-5.7 1-3.1 1.9-6.8 1.9-8.2 0-2 .7-1 3 3.7 1.7 3.5 3 6.6 3 6.8zm33 5.4c5.2 5 8.9 9 8.3 9-.7 0-1.5-.4-1.8-1-.3-.5-2.7-1-5.3-1-8.7 0-12.7 0-15.2.3-2.3.2-2.5-.2-3.1-4.8-.3-2.8-.9-5.7-1.3-6.6-.5-1.2.2-2 3.1-3.1 2.1-.9 4.3-1.6 4.8-1.7.6 0 5.3 4 10.5 8.9zm-48.4 12.7c-1.6 8.7-2.9 9.5-4.8 3.2-1.1-3.7-1-4.3.7-5.5 3.5-2.6 4.8-1.8 4.1 2.3zM270.4 153.7c.3 1 1 3.8 1.5 6.2.5 2.4 1.9 5.3 3.1 6.5l2.2 2.1-.5-3.7c-.7-4.8-4.3-12.8-5.7-12.8-.6 0-.9.8-.6 1.7z"/><path d="M147 154.4c0 2.5 7.6 15.9 11.2 19.7 2.4 2.5 4.8 5.4 5.5 6.5.6 1 1.2 1.4 1.2.7.1-.6-3.8-6.9-8.5-14-9.4-13.9-9.4-14-9.4-12.9zM128 155.3c0 1.6 4.1 8.7 5 8.7.6 0 .4-1.2-.4-2.8-1.8-3.4-4.5-6.9-4.6-5.9zM135 168.7c.1 1.1 4.9 10 5 9.1 0-1.1-3.9-9.8-4.5-9.8-.3 0-.5.3-.5.7zM140.7 182.5c.6 4.1 2.1 8 2.9 7.3.2-.3-.5-2.9-1.6-5.9-1.8-5-1.9-5.1-1.3-1.4zM263.4 211.3c-2.1 1.8-5.8 3.9-8.1 4.6-6 2-11.8 5.4-11.8 7.1 0 1.6.9 1.6 9.6.3 7.8-1.3 16.9-8.5 16.9-13.5 0-2.7-2.2-2.2-6.6 1.5zM265.6 222.7c-.6 1.4-.5 1.5.5.6.7-.7 1-1.5.7-1.8-.3-.3-.9.2-1.2 1.2zM78.4 228c.4 1.4.9 5.9 1.2 10 .8 9.2 3.4 14.7 7.7 16.5 1.8.7 3.4 1.2 3.6.9.2-.2-1-3-2.7-6.1-1.7-3.2-4-8.7-5.2-12.3-1.2-3.5-2.8-7.6-3.6-9l-1.5-2.5.5 2.5zM272.3 240.5c-.7 4-3 12.1-5.2 18.1-2.2 6-3.7 11.2-3.2 11.7 1.5 1.5 7.9-14.4 8.5-21.2.3-3.6 1-6.7 1.5-7 .5-.3 1.2-2.4 1.5-4.7.6-3.1.4-4.1-.6-4.1s-1.8 2.4-2.5 7.2zM258.9 238.7c-1.3 1.6-1.2 1.7.4.4 1.6-1.3 2.1-2.1 1.3-2.1-.2 0-1 .8-1.7 1.7zM217.3 269.2c-2 2.2-1.1 2.3 2.7.3 3.5-1.8 3.7-2.1 1-2.1-1.2 0-2.8.8-3.7 1.8zM143.2 271.7c-4.1 5.9-4.5 7.3-2.6 9.4.9 1 2.2 1.9 2.7 1.9.6 0 .3-.8-.6-1.8-2.2-2.4-2.1-3.8.1-7 2.6-3.8 3.4-5.2 2.8-5.2-.2 0-1.3 1.2-2.4 2.7zM202.9 282.4c-3.1 1.9-9.2 5-13.5 6.9-4.4 1.9-11.5 5.1-15.9 7.1-5.8 2.6-9.4 3.6-13.1 3.6-2.8 0-5.4.3-5.7.7-.9.8 13.2 5.2 18.8 5.8 2.2.3 3.4.2 2.8-.1-.7-.3-1.3-2-1.3-3.7 0-2.8.6-3.5 4.3-5.2 2.3-1.1 8.4-4.2 13.5-6.9s9.4-4.7 9.7-4.4c.9.9-4.9 7.6-11.2 13-3.5 2.9-5.9 5.4-5.3 5.6 1.1.4 8-3.6 8-4.6 0-.4 3-4.1 6.6-8.2 12.3-14 12.7-15.8 2.3-9.6zM377.8 269.5c2.6 3.2 2.8 6.2.7 6.7-1.4.3-1.4.5 0 2.5 2.2 3.1 20.5 15.3 23 15.3.3 0 .5-4.2.5-9.3v-9.2l-11.7-4c-15.5-5.3-15-5.2-12.5-2zM391 304.6c0 .3 1.3 2.3 2.8 4.3 1.6 2 3.7 5.1 4.8 6.8 1 1.8 2.2 3.3 2.6 3.3.4 0 .8-2.1.8-4.8 0-4.6-.1-4.8-5-7.5-5.2-2.8-6-3.1-6-2.1zM371.2 323.7c.2.7 4.2 6.4 9 12.5 4.8 6.2 10.9 14.2 13.6 17.8 5.2 6.9 8.2 8.7 8.2 5 0-1.3-.8-2.4-2-2.7-1-.3-5.7-5.5-10.4-11.7-8.6-11.4-18.9-23.1-18.4-20.9zM368 357.7c.8 1.1 6.6 8.2 12.9 15.7 12.2 14.4 12.5 14.6 15.6 8.6 1.4-2.6 1.3-2.8-9.1-11.6-11.1-9.4-22.2-16.7-19.4-12.7z"/></svg>